<?xml version="1.0" encoding="utf-8"?>
<!-- Generator: Adobe Illustrator 26.0.2, SVG Export Plug-In . SVG Version: 6.00 Build 0)  -->
<svg version="1.1" xmlns="http://www.w3.org/2000/svg" xmlns:xlink="http://www.w3.org/1999/xlink" x="0px" y="0px"
	 viewBox="0 0 850.39 595.28" style="enable-background:new 0 0 850.39 595.28;" xml:space="preserve">
<style type="text/css">
	.st0{fill:#D2DA3E;}
	.st1{fill:#7CB5C6;}
</style>
<g id="Ebene_1">
	<g>
		<path d="M424.36,100.4c-0.11-10.24-2.2-14.87-16.3-14.87c-14.76,0-16.52,5.29-16.52,18.72v29.08c0,13.44,2.2,18.72,16.52,18.72
			c14.32,0,16.52-3.19,16.52-16.63h10.02c0,16.41-1.76,26.54-26.54,26.54s-27.09-10.13-27.09-28.75v-28.86
			c0-18.61,4.41-28.64,27.09-28.64c22.03,0,26.32,8.26,26.54,24.67H424.36z"/>
		<path d="M488.35,161.41l-4.3-15.75h-25.44l-4.3,15.75h-10.9l22.58-84.7h10.68l22.47,84.7H488.35z M471.28,90.38l-5.73,27.64
			l-4.29,17.73h20.04l-4.41-18.06L471.28,90.38z"/>
		<path d="M538.35,123.09l14.98-46.7h12v85.03h-10.46v-39.98l1.54-23.24l-15.53,47.69h-5.07l-15.53-47.69l1.54,23.24v39.98h-10.46
			V76.39h12L538.35,123.09z"/>
		<path d="M606.96,76.39c14.87,0,24.12,6.06,24.12,23.13v9.25c0,17.51-6.72,24.56-24.12,24.56h-12.33v28.2h-10.46V76.5L606.96,76.39
			z M594.62,86.3v37.01h12.33c9.36,0,13.66-2.86,13.66-14.54v-9.25c0-11.67-4.29-12.67-13.66-13.22H594.62z"/>
		<path d="M687.68,76.39h10.57v57.05c0,18.61-5.95,28.64-26.1,28.64s-26.32-10.02-26.32-28.64V76.5h10.57v57.05
			c0,13.44,2.64,18.72,15.75,18.72s15.53-5.29,15.53-18.72V76.39z"/>
		<path d="M753.32,97.42c-0.55-6.94-2.97-11.9-13.55-11.9c-11.79,0-14.1,5.4-14.1,13.88c0,11.79,10.24,11.67,20.93,12.78
			c9.8,0.99,19.94,5.84,19.94,23.57c0,18.28-6.94,26.1-24.45,26.1H740c-17.4,0-25.33-8.48-26.1-22.91h11.34
			c0.55,7.16,3.74,12.67,14.65,12.67h2.09c11.45,0,13.77-5.4,13.77-15.31c0-13.88-9.14-14.1-19.71-14.98
			c-9.91-0.77-21.26-5.62-21.26-21.81c0-15.75,7.16-23.9,25-23.9c16.85,0,23.68,7.82,24.45,21.81H753.32z"/>
		<path d="M418.75,229.58c-0.55-6.94-2.97-11.9-13.55-11.9c-11.78,0-14.1,5.4-14.1,13.88c0,11.79,10.24,11.67,20.93,12.78
			c9.8,0.99,19.93,5.84,19.93,23.57c0,18.28-6.94,26.1-24.45,26.1h-2.09c-17.4,0-25.33-8.48-26.1-22.91h11.34
			c0.55,7.16,3.74,12.67,14.65,12.67h2.09c11.45,0,13.77-5.4,13.77-15.31c0-13.88-9.14-14.1-19.71-14.98
			c-9.91-0.77-21.26-5.62-21.26-21.81c0-15.75,7.16-23.9,25-23.9c16.85,0,23.68,7.82,24.45,21.81H418.75z"/>
		<path d="M490.33,232.55c-0.11-10.24-2.2-14.87-16.3-14.87c-14.76,0-16.52,5.29-16.52,18.72v29.08c0,13.44,2.2,18.72,16.52,18.72
			c14.32,0,16.52-3.19,16.52-16.63h10.02c0,16.41-1.76,26.54-26.54,26.54s-27.09-10.13-27.09-28.75v-28.86
			c0-18.61,4.41-28.64,27.09-28.64c22.03,0,26.32,8.26,26.54,24.67H490.33z"/>
		<path d="M555.75,293.57V258h-28.42v35.69h-10.68v-84.81h10.68v39.1h28.42v-39.1h10.46v84.7H555.75z"/>
		<path d="M617.97,213.17h8.15l14.54,63l6.17-31.72l8.15-35.9h10.79l-20.26,85.14h-9.58l-7.16-28.53l-6.72-30.51l-6.72,30.51
			l-7.16,28.53h-9.58l-20.27-85.14h10.79l8.15,35.9l6.17,31.72L617.97,213.17z"/>
		<path d="M712.79,293.57l-4.3-15.75h-25.44l-4.3,15.75h-10.9l22.58-84.7h10.68l22.47,84.7H712.79z M695.72,222.53l-5.73,27.64
			l-4.29,17.73h20.04l-4.41-18.06L695.72,222.53z"/>
		<path d="M766.87,261.52l18.39,32.05h-12.33l-17.07-31.39h-9.58v31.5h-10.46v-85.14l22.8-0.11c14.87,0,24.12,6.17,24.12,23.24v5.95
			C782.73,251.17,778.65,259.21,766.87,261.52z M746.27,218.46v33.7h12.33c9.36,0,13.66-2.86,13.66-14.54v-5.95
			c0-11.67-4.29-12.67-13.66-13.22H746.27z"/>
		<path d="M807.5,283.99h32.71v9.58h-47.58l33.92-75.77h-29.41v-9.25h44.28L807.5,283.99z"/>
		<path d="M415.11,345.33h8.15l14.54,63l6.17-31.72l8.15-35.91h10.79l-20.27,85.14h-9.58l-7.16-28.53l-6.72-30.51l-6.72,30.51
			l-7.16,28.53h-9.58l-20.27-85.14h10.79l8.15,35.91l6.17,31.72L415.11,345.33z"/>
		<path d="M509.93,425.73l-4.3-15.75H480.2l-4.3,15.75H465l22.58-84.7h10.68l22.47,84.7H509.93z M492.86,354.69l-5.73,27.64
			l-4.29,17.73h20.04L498.48,382L492.86,354.69z"/>
		<path d="M532.95,425.73v-84.92h10.57v75.22h33.15v9.69H532.95z"/>
		<path d="M590.66,425.73v-84.92h25.77c22.69,0,26.76,10.02,26.76,28.42v27.98c0,18.5-4.19,28.75-27.53,28.53H590.66z
			 M615.66,415.71c15.86,0,16.96-4.96,16.96-18.39v-28.2c0-13.44-1.1-18.39-16.96-18.39h-14.54v64.98H615.66z"/>
	</g>
	<g>
		<path d="M23.09,473.43v4.44H7.54v12.27h14.07v4.71H7.54v14.7h16.87v4.71H2.52v-40.83H23.09z"/>
		<path d="M40.23,490.3l3.54-9.1l3.38-7.77h5.5l-8.94,20.31l8.94,20.57h-5.5l-2.22-5.08l-4.71-11.95l-4.65,11.9l-2.27,5.13h-5.5
			l8.94-20.57l-8.94-20.31h5.5l3.38,7.72L40.23,490.3z"/>
		<path d="M76.61,484.96c-0.05-4.92-1.06-7.14-7.83-7.14c-7.09,0-7.93,2.54-7.93,8.99v13.96c0,6.45,1.06,8.99,7.93,8.99
			c6.88,0,7.93-1.53,7.93-7.99h4.81c0,7.88-0.85,12.75-12.75,12.75c-11.9,0-13.01-4.87-13.01-13.8v-13.86
			c0-8.94,2.12-13.75,13.01-13.75c10.58,0,12.64,3.97,12.75,11.85H76.61z"/>
		<path d="M109.09,473.43v4.44H93.54v12.27h14.07v4.71H93.54v14.7h16.87v4.71h-21.9v-40.83H109.09z"/>
		<path d="M117.02,514.26v-40.78h5.08v36.12h15.92v4.65H117.02z"/>
		<path d="M143.94,514.26v-40.78h5.08v36.12h15.92v4.65H143.94z"/>
		<path d="M191.43,473.43v4.44h-15.55v12.27h14.07v4.71h-14.07v14.7h16.87v4.71h-21.9v-40.83H191.43z"/>
		<path d="M217.88,504.68l-0.74-13.86v-17.35h5.02v40.78h-4.71l-13.43-29.3l0.32,13.38v15.92h-5.02v-40.78h4.76L217.88,504.68z"/>
		<path d="M250.72,484.96c-0.05-4.92-1.06-7.14-7.83-7.14c-7.09,0-7.93,2.54-7.93,8.99v13.96c0,6.45,1.06,8.99,7.93,8.99
			c6.88,0,7.93-1.53,7.93-7.99h4.81c0,7.88-0.85,12.75-12.75,12.75c-11.9,0-13.01-4.87-13.01-13.8v-13.86
			c0-8.94,2.12-13.75,13.01-13.75c10.58,0,12.64,3.97,12.75,11.85H250.72z"/>
		<path d="M283.19,473.43v4.44h-15.55v12.27h14.07v4.71h-14.07v14.7h16.87v4.71h-21.9v-40.83H283.19z"/>
		<path d="M305.35,514.31v-40.72h5.13v40.72H305.35z"/>
		<path d="M337.35,504.68l-0.74-13.86v-17.35h5.02v40.78h-4.71l-13.43-29.3l0.32,13.38v15.92h-5.02v-40.78h4.76L337.35,504.68z"/>
		<path d="M364.21,514.26v-40.78h12.38c10.9,0,12.85,4.81,12.85,13.64v13.43c0,8.88-2.01,13.8-13.22,13.7H364.21z M376.22,509.44
			c7.62,0,8.14-2.38,8.14-8.83v-13.54c0-6.45-0.53-8.83-8.14-8.83h-6.98v31.2H376.22z"/>
		<path d="M396.9,514.31v-40.72h5.13v40.72H396.9z"/>
		<path d="M431.06,484.43c-0.11-4.71-1.38-6.88-8.14-6.88s-8.14,2.54-8.14,9.15v14.28c0,6.45,0.53,8.99,8.14,8.99
			c7.62,0,8.14-1.53,8.14-7.99v-5.55h-7.93v-4.55h13.01v10.1c0,7.88-0.95,12.69-13.22,12.69c-11.21,0-13.22-4.81-13.22-13.75v-14.17
			c0-8.94,2.01-13.75,13.22-13.75c10.68,0,12.85,3.38,13.06,11.42H431.06z"/>
		<path d="M443.65,514.31v-40.72h5.13v40.72H443.65z"/>
		<path d="M467.35,478.35v35.91h-5.02v-35.91h-8.46v-4.65h21.95v4.65H467.35z"/>
		<path d="M495.8,514.26l-2.06-7.56h-12.22l-2.06,7.56h-5.24l10.84-40.67h5.13l10.79,40.67H495.8z M487.6,480.14l-2.75,13.27
			l-2.06,8.52h9.62l-2.12-8.67L487.6,480.14z"/>
		<path d="M506.11,514.26v-40.78h5.08v36.12h15.92v4.65H506.11z"/>
		<path d="M566.35,473.43v4.44H550.8v12.27h14.07v4.71H550.8v14.7h16.87v4.71h-21.9v-40.83H566.35z"/>
		<path d="M592.8,504.68l-0.74-13.86v-17.35h5.02v40.78h-4.71l-13.43-29.3l0.32,13.38v15.92h-5.02v-40.78h4.76L592.8,504.68z"/>
		<path d="M626.06,484.43c-0.11-4.71-1.38-6.88-8.14-6.88s-8.14,2.54-8.14,9.15v14.28c0,6.45,0.53,8.99,8.14,8.99
			c7.62,0,8.14-1.53,8.14-7.99v-5.55h-7.93v-4.55h13.01v10.1c0,7.88-0.95,12.69-13.22,12.69c-11.21,0-13.22-4.81-13.22-13.75v-14.17
			c0-8.94,2.01-13.75,13.22-13.75c10.68,0,12.85,3.38,13.06,11.42H626.06z"/>
		<path d="M638.65,514.31v-40.72h5.13v40.72H638.65z"/>
		<path d="M670.64,504.68l-0.74-13.86v-17.35h5.02v40.78h-4.71l-13.43-29.3l0.32,13.38v15.92h-5.02v-40.78h4.76L670.64,504.68z"/>
		<path d="M703.81,473.43v4.44h-15.55v12.27h14.07v4.71h-14.07v14.7h16.87v4.71h-21.9v-40.83H703.81z"/>
		<path d="M732.31,473.43v4.44h-15.55v12.27h14.07v4.71h-14.07v14.7h16.87v4.71h-21.9v-40.83H732.31z"/>
		<path d="M755.16,498.87l8.83,15.39h-5.92l-8.2-15.07h-4.6v15.13h-5.02v-40.88l10.95-0.05c7.14,0,11.58,2.96,11.58,11.16v2.86
			C762.78,493.89,760.82,497.75,755.16,498.87z M745.27,478.19v16.18h5.92c4.5,0,6.56-1.38,6.56-6.98v-2.86
			c0-5.61-2.06-6.08-6.56-6.35H745.27z"/>
		<path d="M769.76,514.31v-40.72h5.13v40.72H769.76z"/>
		<path d="M801.75,504.68l-0.74-13.86v-17.35h5.02v40.78h-4.71l-13.43-29.3l0.32,13.38v15.92h-5.02v-40.78h4.76L801.75,504.68z"/>
		<path d="M835.02,484.43c-0.11-4.71-1.38-6.88-8.14-6.88s-8.14,2.54-8.14,9.15v14.28c0,6.45,0.53,8.99,8.14,8.99
			c7.62,0,8.14-1.53,8.14-7.99v-5.55h-7.93v-4.55h13.01v10.1c0,7.88-0.95,12.69-13.22,12.69c-11.21,0-13.22-4.81-13.22-13.75v-14.17
			c0-8.94,2.01-13.75,13.22-13.75c10.68,0,12.85,3.38,13.06,11.42H835.02z"/>
	</g>
</g>
<g id="Logo">
	<rect x="184.06" y="400.16" class="st0" width="170.97" height="29.97"/>
	<rect x="43.5" y="400.16" width="129.32" height="29.97"/>
	<polygon class="st0" points="325.05,258.99 325.05,358.95 184.06,358.95 184.06,388.92 355.03,388.92 355.03,258.99 	"/>
	<polygon points="73.47,358.84 73.47,258.99 43.5,258.99 43.5,358.84 43.5,362.93 43.5,388.82 172.81,388.82 172.81,358.84 	"/>
	<polygon points="114.69,317.73 114.69,258.99 84.72,258.99 84.72,317.73 84.72,320.43 84.72,347.7 172.81,347.7 172.81,317.73 	"/>
	<rect x="283.77" y="258.89" class="st0" width="29.97" height="88.8"/>
	<polygon points="242.55,258.98 242.55,317.73 184.06,317.73 184.06,347.7 272.52,347.7 272.52,321.66 272.52,317.73 272.52,258.98 
			"/>
	<rect x="2.28" y="258.99" width="29.97" height="171.15"/>
	<rect x="84.72" y="202.99" class="st1" width="29.97" height="44.7"/>
	<rect x="43.5" y="203.03" width="29.97" height="44.6"/>
	<rect x="2.28" y="203.03" class="st1" width="29.97" height="44.66"/>
	<rect x="84.72" y="161.7" width="29.97" height="29.97"/>
	<rect x="43.5" y="161.7" class="st1" width="29.97" height="29.97"/>
	<rect x="43.5" y="120.48" class="st1" width="71.19" height="29.97"/>
	<rect x="125.94" y="161.7" class="st1" width="46.88" height="29.97"/>
	<rect x="125.94" y="120.48" class="st1" width="46.88" height="29.97"/>
	<rect x="184.06" y="161.74" class="st1" width="47.24" height="29.97"/>
	<rect x="184.06" y="120.5" class="st1" width="47.24" height="29.97"/>
	<rect x="2.28" y="77.39" class="st1" width="29.97" height="114.36"/>
	<rect x="43.5" y="77.39" class="st1" width="71.19" height="31.88"/>
	<rect x="125.94" y="77.39" class="st0" width="46.88" height="31.88"/>
	<rect x="184.06" y="77.39" class="st1" width="47.24" height="31.88"/>
	<rect x="242.55" y="77.38" class="st0" width="112.48" height="31.88"/>
	<rect x="242.55" y="120.49" class="st1" width="71.26" height="29.97"/>
	<rect x="242.55" y="161.74" class="st0" width="71.26" height="29.97"/>
	<rect x="325.05" y="120.54" class="st0" width="29.97" height="29.97"/>
	<rect x="325.05" y="161.7" class="st1" width="29.97" height="29.97"/>
	<rect x="242.55" y="202.99" class="st1" width="29.97" height="44.7"/>
	<rect x="283.77" y="203.03" class="st0" width="29.97" height="44.6"/>
	<rect x="325.05" y="202.99" class="st0" width="29.97" height="44.7"/>
</g>
</svg>
